<?xml version="1.0" encoding="utf-8"?>
<!-- Generator: Adobe Illustrator 23.0.0, SVG Export Plug-In . SVG Version: 6.00 Build 0)  -->
<svg version="1.1" id="Capa_1" xmlns="http://www.w3.org/2000/svg" xmlns:xlink="http://www.w3.org/1999/xlink" x="0px" y="0px"
	 viewBox="0 0 612 792" style="enable-background:new 0 0 612 792;" xml:space="preserve">
<style type="text/css">
	.st0{fill:#746418;}
	.st1{fill:#E5CC40;}
	.st2{fill:#E7D677;}
	.st3{fill:#73641A;}
	.st4{fill:#78691B;}
	.st5{fill:#75671A;}
	.st6{fill:#746419;}
	.st7{fill:#F6EAA7;}
	.st8{fill:#ECDD87;}
	.st9{fill:#E3D26C;}
	.st10{fill:#867626;}
	.st11{fill:#E7D467;}
	.st12{fill:#998726;}
	.st13{fill:#EEE39F;}
	.st14{fill:#E5D36B;}
	.st15{fill:#76671D;}
	.st16{fill:#75661D;}
	.st17{fill:#E0CA51;}
	.st18{fill:#ECDE8B;}
	.st19{fill:#E3CA3F;}
	.st20{fill:#F1E5A4;}
	.st21{fill:#E6D052;}
	.st22{fill:#EEDF8B;}
	.st23{fill:#D2C04B;}
	.st24{fill:#E7D673;}
	.st25{fill:#D2BA34;}
	.st26{fill:#E5D26D;}
	.st27{fill:#8E7E26;}
	.st28{fill:#C0AE40;}
	.st29{fill:#DAC135;}
	.st30{fill:#B09D31;}
	.st31{fill:#AB9935;}
	.st32{fill:#B5A02F;}
	.st33{fill:#CEB93D;}
	.st34{fill:#877721;}
	.st35{fill:#8F822B;}
	.st36{fill:#BAA434;}
	.st37{fill:#998929;}
	.st38{fill:#AA9931;}
	.st39{fill:#F6ECB5;}
	.st40{fill:#F2E59F;}
	.st41{fill:#EFE29A;}
	.st42{fill:#F0E6A7;}
	.st43{fill:#9C8B2B;}
	.st44{fill:#867522;}
	.st45{fill:#8E7E23;}
	.st46{fill:#F5E48B;}
	.st47{fill:#E0CE6F;}
	.st48{fill:#D7C045;}
	.st49{fill:#C1B555;}
	.st50{fill:#83731C;}
	.st51{fill:#DAC74A;}
	.st52{fill:#C4B033;}
	.st53{fill:#E4D262;}
	.st54{fill:#D8C244;}
	.st55{fill:#EDDA77;}
	.st56{fill:#9F8C29;}
</style>
<g>
	<path class="st0" d="M3.03,234.42c9.04-8.84,13.82-22.22,28.53-25c15.04-2.84,27.3,1,39.04,10.86
		c46.56,39.09,92.69,78.92,151.05,100.4c17.99,6.62,35.93,13.22,54.72,17.18c6.05,2.01,15.91-2.09,15.75,9.85
		c-1.95,4.36-6.08,5.74-9.82,4.59c-9.06-2.78-17.53,1.28-26.28,1.2c-47.39-4.65-88.45-25.59-127.86-50.39
		c-18.3-11.52-35.76-24.3-51.11-39.75c-5.66-5.69-11.78-10.93-18.42-15.56c-20.28-14.14-20.28-14.26-40.45,1.03
		c-5.04,3.81-9.9,4.55-15.15,0.74C3.03,244.52,3.03,239.47,3.03,234.42z"/>
	<path class="st1" d="M3.03,249.57c7.72,0.47,12.76-2.99,17.72-9.09c8.48-10.42,18.28-11.99,30.22-3.09
		c32.22,24.01,60.11,53.5,95.88,73.09c33.9,18.57,68.53,34.27,107.24,39.32c1.36,1.29,1.37,2.58,0.03,3.9
		c-2.66,1.89-5.68,2.3-8.83,2.18c-5.2-0.44-10.19-2.24-15.45-2.36c-19.21-0.27-35.45-10.62-53.1-16.07
		c-39.45-12.19-77.38-28.29-112.39-50.6c-8.07-5.14-15.67-10.92-22.8-17.3c-8.82-7.9-15.83-20.81-31.02-10.59
		c-1.51,1.02-3.27-1.75-4.4-3.41c-1.03-0.99-2.06-1.97-3.09-2.96C3.03,251.59,3.03,250.58,3.03,249.57z"/>
	<path class="st2" d="M148.49,761.7c-1.23-7.31-3.19-14.91,6.8-17.97c26.04-3.97,51.06-12.44,76.87-17.48
		c5.41-1.06,10.72-2.17,16.26-1.89c6.03,0.65,12.02,1.38,15.63,7.24c-32.39,7.78-64.78,15.6-97.19,23.29
		c-4.82,1.14-10.19,0.93-12.31,6.81C152.53,761.7,150.51,761.7,148.49,761.7z"/>
	<path class="st3" d="M357.75,328.18c-3.29,5.35-6.59,10.7-11.04,17.92c42.83,1.06,81.88-6.74,119.43-21.48
		c38.84-15.25,75.99-33.81,107.02-62.67c2.48-2.31,6.02-3.71,9.29-4.91c8.52-3.13,18.11-7.65,24.39,2.54
		c6.48,10.52-4.18,14.56-9.87,20.19c-7.57,5.13-17.33,3.41-25.05,8.03c-7.61,3.91-15,8.18-22.05,13.04
		c-13.17,10.46-29.2,15.74-43.55,24.09c-14.47,7.47-30.23,11.85-44.94,18.8c-6.35,3.32-13.02,5.69-20.13,6.75
		c-22.04,3.78-43.69,9.65-65.94,12.32c-9.11,0-17.74,4.01-26.97,3.06c-6.69-0.69-13.43-1.1-14.74-9.8
		c-0.43-6.12,3.43-10.61,5.96-15.61c4.36-5.93,6.44-13.91,14.6-16.49C356.56,324.33,358.45,325.15,357.75,328.18z"/>
	<path class="st4" d="M260.6,58.59c28.4-27.78,73.36-27.4,101.96-0.11c23.88,22.79,32.64,52.52,37.62,83.91
		c7.18,45.26-1.07,88.66-15.6,131.33c-7.75-1.16-5.78-7.56-6.74-12.4c2.09-21.2,10.04-41.58,8.89-63.25
		c5.1-21.62,0.59-43.06-1.28-64.53c-3.68-17.66-7.64-35.03-18.14-50.46c-14.72-21.61-46.81-41.69-82.98-27.65
		c-4.35,0.99-8.04,3.38-11.77,5.68C268.17,62.22,262.93,67.24,260.6,58.59z"/>
	<path class="st5" d="M415.52,691.78c-3.84-6.9-11.8-5.87-17.54-9.12c-20.17-15.42-44.82-19.09-68.33-25.24
		c-29.48-7.71-59.44-13.56-89.19-20.23c-6.01-2.98-14.98-1.93-15.99-11.72c24.12-1.88,46.63,6.47,69.61,11.38
		c46.32,9.89,91.94,22.45,136.35,39.13c6.65,2.5,13.27,4.96,18.59,9.78c4.73,4.29,8.62,9.03,2.74,15.35
		c-10.64,5.68-19.62,0.94-28.51-4.49C420.24,695.7,417.33,694.61,415.52,691.78z"/>
	<path class="st6" d="M406.6,567.39c-9.2-2.83-18.4-5.66-27.59-8.5c-11.48-7.95-24.39-11.5-38.17-12.4
		c-30.54-7.37-61.08-14.68-91.7-21.65c-5.37-1.22-10.72-2.86-13.45-8.47c0.43-5.11,3.4-5.09,7.14-3.55
		c47.19,6.89,92.89,20.21,138.93,32.07c19.87,5.12,39.68,10.46,59.49,15.81c8.06,2.18,15.93,4.73,13.47,15.91
		c-8.22,3.64-16.61,3.21-25.09,1.13c-5.01-0.69-9.87-2-14.62-3.73C411.46,572.74,408.5,570.73,406.6,567.39z"/>
	<path class="st7" d="M396.54,431.73c-23.19-9.23-44.11-22.62-61.51-40.05c-12.94-12.96-28.53-14.62-44.44-17.64
		c10.3-6.79,19.45-15.37,31.35-19.68c3.76-1.36,7.26-4.33,10.44,0.71c1.1,4.99,2.38,9.03,8.88,10.15c6.2,1.07,12.22,3.98,16.58,9.14
		c-1.54,6.47-13.38-3.26-12.08,7.68c6.71,11.61,17.71,18.52,28.31,25.87c6.17,4.28,13.35,7.07,18.62,12.69
		C395.05,423.93,399.51,426.56,396.54,431.73z"/>
	<path class="st8" d="M291.5,345.58c-3.24-6.12-11.21-2.98-15.13-7.73c5.31-1.48,2.32-3.57,0.73-6.13
		c-19.82-31.96-35.05-65.77-41.12-103.21c6.12-3.84,8.56,0.79,11.26,4.86c8.51,19.91,13.71,41.07,23.05,60.73
		c9.24,19.46,20.84,36.79,38.34,49.84c4.24,3.16,9.54,6.59,6.26,13.58c-9.58,6.95-20.38,5.46-31.11,4.53
		c-1.62-0.39-3.11-1.1-4.44-2.07c-1.19-1.17-1.59-2.6-1.22-4.22c5.2-5.24,12.08-2.22,18.07-3.58
		C293.12,351.06,291.93,348.59,291.5,345.58z"/>
	<path class="st9" d="M264.05,731.59c-5.34-1.15-10.68-2.3-16.03-3.45c3.23-9.49,12.78-6.1,19.05-9.41
		c35.71-9.84,72.82-11.18,109.04-17.92c2.9-0.54,5.99-0.76,8.41-2.85c4.52-4.27,10.1-2.5,15.34-2.68
		c-4.47,15.39-18.25,14.98-30.15,17.78c-30.28,5.61-60.54,11.27-90.83,16.79C273.98,730.75,268.99,731.03,264.05,731.59z"/>
	<path class="st10" d="M430.86,452.06c-6.16-3.77-12.32-7.53-18.48-11.3c-3.6-3.82-6.68-7.93-7.33-13.37
		c0.78-2.45,2.06-3.94,4.84-2.46c21.14,8.41,39.88,22.06,62.31,27.87c7.77,2.01,9,7.48,0.84,12.14
		C456.93,467.4,441.66,467.02,430.86,452.06z"/>
	<path class="st11" d="M442.46,346.74c5.91-2.14,11.82-4.27,17.73-6.41c2.83-1.52,5.6-2.01,7.24,1.47c1.18,2.49,0.12,4.77-1.95,6.38
		c-4.23,3.29-9.85,4.13-13.91,7.77c-28.4,10.51-58.27,13.57-88.01,17.23c-4.2-14.44,6.03-12.72,14.52-12.96
		C399.68,356.4,421.44,353.34,442.46,346.74z"/>
	<path class="st12" d="M238.82,485.4c49.72-13.75,100.23-23.13,151.66-27.44c4.68-0.09,10.23-3.72,13.19,3.23
		c-2.91,5.13-7.93,6.41-13.18,7.31c-43.15,2.42-85.5,10.23-127.63,19.41c-5.47,1.19-10.59,3.14-14.64,7.23
		c-2.93,0.86-5.87,1.72-8.8,2.59C235.01,493.82,238.46,489.53,238.82,485.4z"/>
	<path class="st13" d="M406.6,567.39c2.84,1.29,5.68,2.58,8.53,3.87c5.65,8.47,14.51,8.27,23.19,8.57
		c3.66,0.31,7.62-0.38,10.31,3.11c-4.19,4.12-9.51,2.46-14.4,2.67c-24.6,1.07-49.21,2-73.81,2.97c-2.75-3.53-0.9-6.46,1.19-9.36
		c2.58-3.8,8.07-2.22,10.8-5.79C382.9,566.29,396.29,575.53,406.6,567.39z"/>
	<path class="st14" d="M363.92,580.03c-1.17,2.85-2.34,5.7-3.51,8.55c-12.05,6.93-25.47,2.03-38.16,4.42
		c-23.45,4.42-47.16,7.54-70.76,11.2c-3.14-11.42,7.7-8.81,12.4-12.38c31.08-8.14,63.14-9.84,94.78-14.33
		C360.7,577.21,362.48,578.55,363.92,580.03z"/>
	<path class="st15" d="M238.82,485.4c4.35,3.91-0.79,8.28,0.59,12.34c-7.03,2.2-14.07,4.39-21.1,6.59
		c-2.06,2.88-4.34,5.46-8.08,6.14c-8.48,1.41-17.07,1.71-25.38-0.25c-4.69-1.11-11.62-0.84-11.13-8.96
		C194.91,493.86,216.67,488.85,238.82,485.4z"/>
	<path class="st16" d="M178.71,610.13c18.61-6.93,37.58-12.51,57.26-15.47c2.77-1.47,3.82,0.23,4.57,2.49
		c-0.29,5.27-1.5,10.01-7.06,12.24c-9.05,2.42-18.11,4.84-27.16,7.26c-6.07,5.09-13.27,4.01-20.15,3.12
		C181.15,619.12,175.85,617.46,178.71,610.13z"/>
	<path class="st17" d="M248.22,495.15c0.51-6.97,5.63-8.91,11.24-10.1c43.45-9.2,86.87-18.65,131.5-20.23
		c-0.46,6.89-5.92,5.42-10.06,5.89c-26.14,3-52.29,5.85-77.88,12.33C284.75,487.08,266.48,491.11,248.22,495.15z"/>
	<path class="st18" d="M224.46,625.48c2.97,7.12,11.63,3.65,15.82,8.52c-6.7,5.25-14.36,4.26-22.01,3.4
		c-13.52-2.98-27.09-5.71-40.52-9.05c-6.02-1.49-13.2-3.24-8.22-12.45c15.82,2.94,32.95-0.68,47.35,9.43
		C219.4,625.38,221.93,625.43,224.46,625.48z"/>
	<path class="st19" d="M505.49,322.07c14.35-8,28.69-15.99,43.04-23.99c3.04-2.35,5.77-1.56,6.95,1.71
		c1.54,4.29-1.43,7.28-4.2,10.17c-4.98,5.21-14.11,4.99-16.92,12.99c-11.7,9.24-26.55,11.64-39.5,18.16
		c-4.38-5.16-3.83-5.22,1.36-10.22C499.27,327.95,507.81,330.48,505.49,322.07z"/>
	<path class="st20" d="M430.86,452.06c13.1,7.46,26.32,14.51,42.2,12.89c-23.96,6.56-48.53,5.64-72.99,5.95
		c-2.59-5.79,3.83-6.82,5.47-10.37c4.49-3.85,10.82-1.89,15.58-4.91C424.52,454.86,428.49,455.66,430.86,452.06z"/>
	<path class="st21" d="M505.49,322.07c2.37,0.5,6.09,0.26,6.84,1.64c1.49,2.73-2.24,3.37-3.79,5c-4.27,4.49-14.94,1.93-13.7,12.4
		c-13.62,7.28-28.2,11.8-43.28,14.85c1.6-5.36,6.88-6.27,10.74-8.94c6.33-4.38,2.4-5.66-2.12-6.68
		C475.29,334.25,490.39,328.16,505.49,322.07z"/>
	<path class="st22" d="M369.7,713.06c11.45-3.55,21.49-9.49,30.15-17.78c5.29-0.88,10.86-0.47,15.67-3.5
		c2.84,0.22,5.67,0.45,8.51,0.68c3.27,4.45,8.32,8.51,3.21,14.78C408.06,709.18,388.88,711.12,369.7,713.06z"/>
	<path class="st23" d="M227.56,158.53c-0.76-19.85,1.04-39.31,8.53-57.94c5.07-3.56,10.15-7.15,11.39,3.18
		c-3.95,18.81-3.43,38.36-9.42,56.83C233.55,165.05,230.69,161.1,227.56,158.53z"/>
	<path class="st24" d="M227.56,158.53c2.9,1.09,5.79,2.17,8.69,3.26c0.74,0.7,1.85,1.37,1.97,2.22c3.3,22.19,4.24,44.7,9.21,66.66
		c0.33,1.45-1.23,2.65-2.2,3.8c-3.03-2.08-4.36-6.8-9.27-5.96C229.46,205.63,225.7,182.42,227.56,158.53z"/>
	<path class="st25" d="M534.35,322.95c0.7-6.37,1.01-5.94,10.75-12.99c3.05-2.2,16.04-4.18,3.42-11.88
		c6.37-5.14,13.08-9.7,20.89-12.42c9.38-3.17,8.2,3.65,8.53,9.03C565.4,307.18,550.07,315.36,534.35,322.95z"/>
	<path class="st26" d="M406.45,462.02c-2.13,2.96-4.26,5.92-6.39,8.88c-32.35,4.05-64.69,8.1-97.04,12.14
		c24.52-10.61,51.21-10.27,76.86-15.19c3.81-0.73,8.12,0.69,11.08-3.04c3.93-1.12,7.86-2.25,11.78-3.37
		C404.13,460.63,405.36,460.87,406.45,462.02z"/>
	<path class="st27" d="M409.9,424.93c-1.27,1.07-2.53,2.15-3.8,3.22c-7.11,3.09-10.37-4.03-15.62-5.88
		c-14.72-9.2-30.51-17.01-41.76-30.84c-2.04-2.51-7.86-4.46-2.97-9.39C365.31,399.08,388.06,411.32,409.9,424.93z"/>
	<path class="st28" d="M245.56,101.29c-2.66-6.92-6.61,3.55-9.47-0.7c0.43-5.7,2.14-10.89,6.02-15.22
		c5.78-3.09,8.79-8.79,12.74-13.59c3.44-7.54,12.45-7.8,17.43-13.34c2.2-3.75,5.51-5.21,9.77-4.71c1.13,5.09-1.9,8.93-3.88,13.09
		c-4.67,6.42-9.36,12.84-16.03,17.43c-8.08,2.74-8.42,11.34-12.78,16.91C248.12,101.98,246.85,102.02,245.56,101.29z"/>
	<path class="st29" d="M375.65,361.6c-9.37-1.7-10.47,5.21-12.09,11.59c-1.91,0.39-3.81,0.78-5.72,1.17
		c-11.34-2.65-24.93-1.97-27.08-18.26c0.82-2.71,2.05-4.8,5.46-3.65c-0.81,7.56,3.48,9.74,9.99,9.2c9.89-0.83,19.77-1.87,29.65-2.81
		c0.94,0.69,1.22,1.33,0.85,1.91C376.34,361.31,375.99,361.6,375.65,361.6z"/>
	<path class="st30" d="M357.75,328.18c-1.11-1.03-2.22-2.07-3.33-3.1c1.87-13.95,7.47-26.21,16.73-36.81
		c4.15,0.39,3.1,4.3,4.45,6.59C373.03,307.78,365.39,317.98,357.75,328.18z"/>
	<path class="st31" d="M216.87,625.33c-15.05-6.84-32.26-2.78-47.35-9.43c2.31-3.13,4.89-5.82,9.19-5.77
		c6.84,12.2,18.65,3.34,27.61,6.52C208.2,621.54,215.82,619.43,216.87,625.33z"/>
	<path class="st32" d="M577.94,294.69c-2.89-2.96-2.25-9.26-8.53-9.03c7.88-8.07,18.11-5.13,27.55-5.89
		C592.35,286.95,584.57,290.08,577.94,294.69z"/>
	<path class="st33" d="M233.48,609.39c2.69-3.39,1.83-8.68,5.99-11.29c7.7-3.83,15.25-8.84,24.21-3.19
		c-2.45,5.2-12.24,0.79-12.17,9.29C245.5,605.93,239.49,607.66,233.48,609.39z"/>
	<path class="st34" d="M375.6,294.86c-2.44-1.25-2.64-3.6-2.9-5.92c-1.78-1.84-2.14-4.06-1.78-6.48
		c4.42-6.54,0.46-17.44,10.82-20.91c0.66,4.12-1.33,8.86,2.84,12.16C384.33,281.93,380.1,288.46,375.6,294.86z"/>
	<path class="st9" d="M427.24,707.24c-1.07-4.93-2.14-9.85-3.21-14.78c8.8,4.29,16.81,11.1,27.71,8.66
		C445.11,709.3,435.95,707.37,427.24,707.24z"/>
	<path class="st35" d="M272.28,58.44c-2.63,7.32-12.05,8.01-14.83,15.19c-3.37,1.36-5.37-0.18-6.69-3.16
		c0.6-6.18,5.49-8.81,9.85-11.87C264.57,64.05,268.38,57.83,272.28,58.44z"/>
	<path class="st36" d="M448.62,582.94c-3.86-0.18-7.72-0.36-11.59-0.54c-3.69-1.58-7.99-2.63-7.16-8.17
		c8.28,0.8,16.55,1.6,24.83,2.4C455.23,581.18,451.53,581.68,448.62,582.94z"/>
	<path class="st37" d="M212.04,507.14c2.09-0.94,4.18-1.88,6.27-2.82c-0.93,4.84,1.79,5.81,5.86,5.83
		c6.32,0.03,12.83-0.94,18.65,2.69c-2.44,0.77-5.31,0.8-6.46,3.78C225.35,520.9,216.06,520.78,212.04,507.14z"/>
	<path class="st38" d="M250.76,70.47c2.23,1.06,4.46,2.11,6.7,3.17c-4.48,4.74-5.93,13.45-15.35,11.74
		C243.64,79.62,246.25,74.49,250.76,70.47z"/>
	<path class="st39" d="M6.12,255.57c1.42,0.48,3.82,1.72,4.12,1.34c11.89-15.37,19.04-4.89,28.13,3.99
		c32.78,32.02,74.05,49.55,116.26,64.58c24.89,8.87,49.04,20.44,75.6,24.23c-1.48,12.05-10.25,8.72-17.08,7.45
		c-34.49-6.39-69.55-10.7-101.66-26.31c-2.71-1.32-5.5-2.52-8.65-2.27c-32.52-12.05-59.69-32.9-87.21-53.14
		C9.07,270.61,7.66,262.97,6.12,255.57z"/>
	<path class="st40" d="M102.84,328.58c14.85-3.81,26,6.79,38.83,10.51c26.42,7.68,54.12,8.28,80.45,16.01
		c3.82,1.12,6.43-2.03,8.1-5.4c5.09,1.02,10.19,2.04,15.28,3.06c5.92,3.57,11.79-0.21,17.68-0.26c6.22-0.06,12.25-0.64,15.64,6.12
		c0.89,0.14,1.79,0.28,2.68,0.41c4.52,14.35-9.73,9.58-14.61,14.35C209.84,367.11,154.27,355.44,102.84,328.58z"/>
	<path class="st41" d="M212.04,507.14c6.23,7.97,15.24,8.79,24.31,9.48c18.93,7.18,38.8,10.76,58.56,14.31
		c16.21,2.91,30.5,12.6,47.41,12.39c1.77,1.83,4.95,3,3.01,6.54c-25.96-5.2-52.11-9.63-77.84-15.79
		c-30.64-7.33-62.12-10.8-92.28-20.26c-3.72-1.17-8.68-0.66-8.62-6.32c0.04-4.24,3.27-5.82,7.12-6.22
		C185.37,510.55,199.15,505.95,212.04,507.14z"/>
	<path class="st42" d="M218.27,637.4c7.33-1.13,14.67-2.27,22-3.4c44.62,8.34,88.77,18.6,132.43,31.06
		c10.66,3.04,19.51,7.9,25.27,17.61c-35.77-13.09-72.68-22.09-109.79-30.33C264.92,647.18,241.58,642.36,218.27,637.4z"/>
	<path class="st43" d="M263.68,594.91c-8.39-1.4-16.03,2.99-24.21,3.19c-1.17-1.14-2.33-2.29-3.5-3.44
		c44.6-12.76,90.35-18.11,136.44-21.22c0.54,6.55-6.82,2.9-8.49,6.59C330.54,585.2,296.67,587.08,263.68,594.91z"/>
	<path class="st44" d="M266.7,722.57c-6.22,1.86-12.45,3.71-18.67,5.57c-28.43,2.48-55.37,12.42-83.44,16.68
		c-3.26,0.49-6.64,3.07-9.3-1.09c32.89-12.88,67.59-19.14,101.65-27.75C262.3,715.05,269.36,711.62,266.7,722.57z"/>
	<path class="st45" d="M266.7,722.57c-0.22-6.69-5.3-6.19-9.77-6.6c42.05-9.43,84.9-13.16,127.59-18.01
		c-11.47,10.6-26.32,8.16-39.94,10.2C318.44,712.07,292.36,716.16,266.7,722.57z"/>
	<path class="st46" d="M266.89,373.38c2.11-7.6,15.51-3.7,14.62-14.35c11.22-1.85,23.22,2.87,33.85-3.98
		c1.95-4.74,6.67-6.1,10.43-8.65c5.36-2.69,8.36-8.98,14.92-9.85c2.14,0.89,3.58,2.09,1.99,4.6c-2.16,3.77-4.32,7.54-6.49,11.31
		c-1.82,1.21-3.64,2.43-5.46,3.65c-9.59,3.68-20.85,4.38-26.76,14.7c-3.38,5.9-9.1,1.49-13.41,3.24
		C282.69,373.82,274.79,373.6,266.89,373.38z"/>
	<path class="st47" d="M345.33,549.85c-1-2.18-2-4.36-3.01-6.54c14.4,0.07,27.61,2.95,36.68,15.58
		C367.37,557.41,356.23,554.1,345.33,549.85z"/>
	<path class="st48" d="M390.48,422.27c6.08-0.35,10.27,4.29,15.62,5.88c4.74,2.88,6.62,7.19,6.28,12.61
		c-6.16-1.47-10.88-5.46-15.84-9.03C394.52,428.58,392.5,425.43,390.48,422.27z"/>
	<path class="st49" d="M406.45,462.02c-1.23-0.19-2.47-0.39-3.7-0.58c-3.18-4.39-8.34-1.76-12.27-3.48
		c9.95-4.27,20.42-1.73,30.65-2.34C417.13,459.83,411.32,459.84,406.45,462.02z"/>
	<path class="st50" d="M291.5,345.58c3.23,2.67,8.32,3.42,9.31,9.15c-7.23,3.27-14.54,1.06-21.72,0.92
		c-7.73-3.66-16.54,0.8-24.21-3.26c-0.2-0.88-0.46-1.74-0.78-2.58C266.12,344.55,279.62,352.27,291.5,345.58z"/>
	<path class="st46" d="M254.87,352.39c8.06,1.19,16.69-1.9,24.21,3.26c-0.17,0.99-0.25,1.98-0.25,2.97
		c-10.27-6.72-23.1,1.12-33.32-5.86C248.63,352.64,251.75,352.51,254.87,352.39z"/>
	<path class="st51" d="M342.7,341.14c-1.06-1.15-2.11-2.3-3.17-3.44c-2.61-4.88,0.36-8.67,2.58-12.52
		c7.26-12.62,15.36-24.75,21.05-38.25c1.67-3.96,3.66-8.6,9.7-6.46c0.25,0.09,0.4,0.76,0.41,1.16c0.02,0.49-0.16,0.99-0.26,1.48
		c-0.11,1.95-0.22,3.9-0.33,5.84c-6.09,12.04-12.18,24.09-18.28,36.13C350.51,330.43,346.61,335.79,342.7,341.14z"/>
	<path class="st21" d="M375.65,361.6c0.09-0.92,0.15-1.84,0.21-2.76c22.2-4.03,44.4-8.06,66.6-12.09
		C421.34,356.89,398.29,358.34,375.65,361.6z"/>
	<path class="st52" d="M373.02,283.11c-1.82-2-4.04-1.56-4.7,0.52c-6.32,19.79-19.88,35.69-28.79,54.07
		c-3.85,4.4-7.1,9.45-12.85,11.78c-2.22-1.18-3.63-2.84-3.33-5.54c6.7-13.01,16.89-23.72,23.83-36.63
		c14.51-27,21.86-56.22,27.34-86.04c1.09-5.95,1.49-12.04,5.29-17.13c3.26-2.9,5.6-7.51,11.21-6.09
		c1.74,21.88-6.71,42.27-9.28,63.51C376.61,267.84,380.35,277.71,373.02,283.11z"/>
	<path class="st53" d="M276.17,65.62c1.96-3.97,3.92-7.94,5.87-11.9c29.03-14.73,66.41-4.38,86.75,24.34
		c11.19,15.8,17.81,33.43,19.33,52.84c-1.89,20.37,6.1,41.34-3.67,61.23c-9.2-2.28-6.38-10.09-6.56-15.78
		c-0.53-17.06,0.17-34.13-3.27-51.05c-2.94-14.45-7.67-28.14-15.24-40.74c-14.9-24.79-40.76-33.34-67.71-22.73
		C286.7,63.77,282.26,68.13,276.17,65.62z"/>
	<path class="st54" d="M382.36,192.11c5.37-20.08,0.74-41.09,5.77-61.21c5.2,22.2,6.79,44.55,2.89,67.14
		c-3.23,1.73-4.4,6.49-9.04,6.14C378.37,200.05,378.23,196.01,382.36,192.11z"/>
	<path class="st55" d="M429.87,574.23c2.38,2.72,4.77,5.45,7.16,8.17c-8.87-0.62-21.5,6.14-21.91-11.14
		C420.04,572.25,424.96,573.24,429.87,574.23z"/>
	<path class="st50" d="M324.11,345.77c0.86,1.23,1.72,2.47,2.58,3.71c-3.78,1.86-7.55,3.72-11.32,5.58
		c-41.16-26.64-53.59-70.99-69.55-113.12c-0.85-2.24-0.41-4.96-0.57-7.46c-6.92-23.74-10.07-47.95-8.99-72.68
		c2.23-20.3,2.05-40.97,9.31-60.5c0.9-0.16,1.8-0.3,2.7-0.42c1.68-0.92,3.1-0.63,4.28,0.88c-2.89,25.93-4.15,51.99-2.8,78.01
		c2.22,42.76,13.67,83.32,32.7,121.58C291.78,320.12,305.64,335.25,324.11,345.77z"/>
	<path class="st56" d="M260.84,83.38c-2.85,5.98-5.71,11.95-8.56,17.93c-1.34-0.15-2.67-0.3-4.01-0.45
		C250.3,93.49,248.81,83.57,260.84,83.38z"/>
</g>
</svg>
